<svg xmlns="http://www.w3.org/2000/svg" version="1.1" xmlns:xlink="http://www.w3.org/1999/xlink" xmlns:svgjs="http://svgjs.com/svgjs" width="37" height="64"><svg width="37" height="64" viewBox="0 0 37 64" fill="none" xmlns="http://www.w3.org/2000/svg">
<path d="M36 36C34.9843 40.1441 33.5466 44.5311 30.161 47.1278C26.7754 49.7245 22.6054 51.0889 18.3397 50.9955C14.074 50.9022 9.96765 49.3567 6.6989 46.6144C3.43015 43.872 1.83339 40.1846 1 36L5 35C5.63775 38.2022 7.02651 41.1437 9.52791 43.2423C12.0293 45.3409 15.1717 46.5235 18.436 46.595C21.7003 46.6664 24.8914 45.6224 27.4822 43.6352C30.0731 41.6481 31.2228 38.1713 32 35L36 36Z" fill="#159BF0"></path>
<path d="M36 28C34.9843 23.8559 33.5466 19.9689 30.161 17.3722C26.7754 14.7755 22.6054 13.4111 18.3397 13.5045C14.074 13.5978 9.96765 15.1433 6.6989 17.8856C3.43015 20.628 1.19447 24.4032 0.361084 28.5877L5 29C5.63775 25.7978 7.02651 23.3563 9.52791 21.2577C12.0293 19.1591 15.1717 17.9765 18.436 17.905C21.7003 17.8336 24.8914 18.8776 27.4822 20.8648C30.0731 22.8519 31.2228 25.8287 32 29L36 28Z" fill="#159BF0"></path>
<path d="M0 3V0.5H5V3H0ZM0 29V3H5V29H0Z" fill="#159BF0"></path>
<path d="M32 3V0.5H37V3H32ZM32 29V3H37V29H32Z" fill="#159BF0"></path>
<path d="M0 61V63.5H5V61H0ZM0 35V61H5V35H0Z" fill="#159BF0"></path>
<path d="M32 61V63.5H37V61H32ZM32 35V61H37V35H32Z" fill="#159BF0"></path>
</svg><style>@media (prefers-color-scheme: light) { :root { filter: none; } }
</style></svg>